<svg xmlns="http://www.w3.org/2000/svg" viewBox="0 0 116.21 73.5"><defs><style>.cls-1{fill:#fff;}</style></defs><title>资源 5</title><g id="图层_2" data-name="图层 2"><g id="图层_1-2" data-name="图层 1"><path class="cls-1" d="M14.41,61.19a2,2,0,0,1-1.07-3.69l1.92-1.22a2,2,0,0,1,2.13,3.39l-1.91,1.21A2,2,0,0,1,14.41,61.19Z"/><path class="cls-1" d="M21.39,56.78a2,2,0,0,1-1.07-3.69l2-1.25a2,2,0,0,1,2.14,3.39l-2,1.24A2,2,0,0,1,21.39,56.78Z"/><path class="cls-1" d="M28.22,52.47a2,2,0,0,1-1.07-3.7l2.06-1.3a2,2,0,0,1,2.14,3.38l-2.07,1.31A2,2,0,0,1,28.22,52.47Z"/><path class="cls-1" d="M35.46,47.91a2,2,0,0,1-1.07-3.69l2.13-1.34a2,2,0,1,1,2.13,3.38L36.53,47.6A2,2,0,0,1,35.46,47.91Z"/><path class="cls-1" d="M73.17,73.5h-.71c-10.72,0-26.56-7-29.73-8.48L3.13,70.19A2.77,2.77,0,0,1,1.29,65.1L7.87,61A2,2,0,0,1,10,64.33L8.16,65.5l35.21-4.59.53.25c.18.08,17.76,8.34,28.56,8.34h.33a26.69,26.69,0,0,0,17.45-5.3c5.07-3.74,10.05-13.47,11.32-22.15.67-4.53.21-8.13-1.3-10.14a6.35,6.35,0,0,1-1.19-5.84c1.28-4.23,7.12-7.34,11.66-9.17l-8.6-5.74-.23-.57c-.13-.32-3.55-8-16.86-6.35C70.91,6,67.82,18.47,67.82,23.12c0,1.94-1.31,4.85-11,11.73-1.57,1.12-3.34,2.32-5.26,3.58a2,2,0,0,1-2.19-3.35c1.87-1.22,3.6-2.4,5.14-3.49,8.76-6.23,9.28-8.28,9.31-8.5,0-5.6,3.72-20.69,20.72-22.82,14.4-1.8,19.57,5.91,20.78,8.21L115,14.93a2.74,2.74,0,0,1-.61,4.86c-6.27,2.21-10.78,5.13-11.49,7.45a2.37,2.37,0,0,0,.57,2.27c2.18,2.91,2.9,7.44,2.06,13.12-1.43,9.76-7,20.42-12.9,24.79A30.57,30.57,0,0,1,73.17,73.5Z"/><path class="cls-1" d="M43.07,43.26A2,2,0,0,1,42,39.57l2.13-1.34a2,2,0,1,1,2.13,3.38L44.14,43A2,2,0,0,1,43.07,43.26Z"/></g></g></svg>