<svg xmlns="http://www.w3.org/2000/svg" xmlns:xlink="http://www.w3.org/1999/xlink" width="120" height="120" viewBox="0 0 120 120">
  <defs>
    <linearGradient id="linear-gradient" x1="0.5" x2="0.5" y2="1" gradientUnits="objectBoundingBox">
      <stop offset="0" stop-color="#f9b946"/>
      <stop offset="1" stop-color="#ee6505"/>
    </linearGradient>
    <clipPath id="clip-path">
      <rect id="矩形_280" data-name="矩形 280" width="120" height="108" fill="#fff"/>
    </clipPath>
    <filter id="路径_157" x="-8.287" y="65.185" width="129.269" height="58.538" filterUnits="userSpaceOnUse">
      <feOffset dx="-2" dy="2" input="SourceAlpha"/>
      <feGaussianBlur stdDeviation="0.5" result="blur"/>
      <feFlood flood-opacity="0.749"/>
      <feComposite operator="in" in2="blur"/>
      <feComposite in="SourceGraphic"/>
    </filter>
    <filter id="路径_158" x="56.906" y="78.685" width="95.808" height="45.038" filterUnits="userSpaceOnUse">
      <feOffset dx="-2" dy="2" input="SourceAlpha"/>
      <feGaussianBlur stdDeviation="0.5" result="blur-2"/>
      <feFlood flood-opacity="0.749"/>
      <feComposite operator="in" in2="blur-2"/>
      <feComposite in="SourceGraphic"/>
    </filter>
  </defs>
  <g id="image" transform="translate(-518 -1008)">
    <rect id="矩形_284" data-name="矩形 284" width="120" height="120" rx="3" transform="translate(518 1008)" fill="url(#linear-gradient)"/>
    <g id="蒙版组_10" data-name="蒙版组 10" transform="translate(518 1020)" opacity="0.8" clip-path="url(#clip-path)">
      <path id="路径_156" data-name="路径 156" d="M1244.346,467.5,1200.5,509.038h92.308Z" transform="translate(-1230.094 -401.334)" fill="#ffe3b4" opacity="0.99"/>
      <g transform="matrix(1, 0, 0, 1, 0, -12)" filter="url(#路径_157)">
        <path id="路径_157-2" data-name="路径 157" d="M1286.615,455,1222,510.038h125.769Z" transform="translate(-1226.79 -389.81)" fill="#ffe3b4" opacity="0.99"/>
      </g>
      <g transform="matrix(1, 0, 0, 1, 0, -12)" filter="url(#路径_158)">
        <path id="路径_158-2" data-name="路径 158" d="M1322.346,467,1278.5,508.538h92.308Z" transform="translate(-1218.09 -388.31)" fill="#ffe3b4" opacity="0.99"/>
      </g>
    </g>
    <circle id="椭圆_13" data-name="椭圆 13" cx="10" cy="10" r="10" transform="translate(543.595 1040.13)" fill="#f8d392" opacity="0.8"/>
  </g>
</svg>
