<svg id="图层_1" data-name="图层 1" xmlns="http://www.w3.org/2000/svg" viewBox="0 0 8.91 3.51"><defs><style>.cls-1{fill:#fff;}</style></defs><title>logo</title><path class="cls-1" d="M.09,2.34l.27.27V1.24l-.27.27Zm1.07.25v.82l.27.27V2.86ZM2.23,1.25V.44L2,.17V1Zm.27.27H1.43V.17L1.16.44V1.79H2.5V3.14l.27-.27V1L2.5.71ZM3,1.24V2.61l.27-.27V1.51ZM.89,1.79h0V.71L.62,1v1.9l.27.27V2.32H2V3.68l.27-.27V2.7h0V2.06H.89Z" transform="translate(-0.09 -0.17)"/><polygon class="cls-1" points="8.91 1.19 8.91 0.49 8.68 0.27 8.23 0.27 8.23 0.27 8 0.49 8 1.64 8 1.64 8.23 1.87 8.68 1.87 8.68 3.01 8.23 3.01 8.23 2.55 8 2.32 8 3.01 8.23 3.24 8.23 3.24 8.68 3.24 8.91 3.01 8.91 1.87 8.68 1.64 8.23 1.64 8.23 0.49 8.68 0.49 8.68 0.96 8.91 1.19"/><polygon class="cls-1" points="5.05 0.27 5.05 1.37 4.83 1.59 4.6 1.37 4.6 0.27 4.37 0.49 4.37 1.46 4.67 1.75 4.37 2.05 4.37 3.01 4.6 3.24 4.6 2.14 4.83 1.91 5.05 2.14 5.05 3.24 5.28 3.01 5.28 2.05 4.99 1.75 5.28 1.46 5.28 0.49 5.05 0.27"/><polygon class="cls-1" points="6.87 0.27 6.87 1.64 6.42 1.64 6.42 0.27 6.19 0.49 6.19 3.01 6.42 3.24 6.42 1.87 6.87 1.87 6.87 3.24 7.1 3.01 7.1 0.49 6.87 0.27"/><path class="cls-1" d="M7.26,3.68" transform="translate(-0.09 -0.17)"/></svg>