<svg id="图层_1" data-name="图层 1" xmlns="http://www.w3.org/2000/svg" xmlns:xlink="http://www.w3.org/1999/xlink" viewBox="0 0 73.92 49.21"><defs><style>.cls-1{fill:#a72;}.cls-2{fill:url(#未命名的渐变_26);}.cls-3{fill:#aa8a1f;opacity:0.6;}.cls-4{fill:url(#未命名的渐变_52);}.cls-5{fill:url(#未命名的渐变_26-2);}.cls-6{fill:#a96f22;}.cls-7{fill:url(#未命名的渐变_26-3);}.cls-8{fill:url(#未命名的渐变_26-4);}.cls-10,.cls-11,.cls-12,.cls-9{fill:#fff;}.cls-9{opacity:0.33;}.cls-10{opacity:0.66;}.cls-11{opacity:0.89;}.cls-12{opacity:0.49;}</style><linearGradient id="未命名的渐变_26" x1="365.69" y1="415.34" x2="439.57" y2="415.34" gradientUnits="userSpaceOnUse"><stop offset="0.02" stop-color="#fff100"/><stop offset="0.67" stop-color="#dfa229"/></linearGradient><radialGradient id="未命名的渐变_52" cx="394.36" cy="389.99" fx="357.866429399342" r="36.62" gradientUnits="userSpaceOnUse"><stop offset="0" stop-color="#f3ee73"/><stop offset="0.46" stop-color="#f4e229"/><stop offset="0.53" stop-color="#f1ce26"/><stop offset="0.63" stop-color="#edb623"/><stop offset="0.74" stop-color="#eaa521"/><stop offset="0.86" stop-color="#e99b1f"/><stop offset="1" stop-color="#e8981f"/></radialGradient><linearGradient id="未命名的渐变_26-2" x1="381.65" y1="381.02" x2="414.37" y2="381.02" xlink:href="#未命名的渐变_26"/><linearGradient id="未命名的渐变_26-3" x1="401.69" y1="405.98" x2="403.63" y2="429.89" xlink:href="#未命名的渐变_26"/><linearGradient id="未命名的渐变_26-4" x1="420.47" y1="404.46" x2="422.41" y2="428.37" xlink:href="#未命名的渐变_26"/></defs><title>mao</title><path class="cls-1" d="M437.76,416c-1.45-1.35-3.69-2.91-8.5-5.62l-60.17,3.88a10.43,10.43,0,0,0-2.84,2.38l-.54-.35a7.57,7.57,0,0,0,0,1.77,1.58,1.58,0,0,0,.27.93,1.2,1.2,0,0,0,.42.5h0c.75.68,2.18,1.31,4.64,1.79,0,0,19.41,4.18,35.69.74,0,0,23.59-5.67,32.85-4v-1.48Z" transform="translate(-365.65 -374.12)"/><path class="cls-2" d="M369.09,412.72s-8.81,4.93,1.94,7c0,0,19.41,4.18,35.69.75,0,0,23.59-5.68,32.85-4a45.23,45.23,0,0,0-10.31-7.62Z" transform="translate(-365.65 -374.12)"/><path class="cls-3" d="M416.76,414.24c-5.1.45-15.6,1.95-15.6,1.95-19.41,2.74-28.54-.37-32.26-2.23,0,.24-.76.58-.74.82,2.53,1.7,11.82,6,33.17,2.84,0,0,10.16-1.49,15.09-1.94,0,0,10.57-.9,15.64-1,0-.47-.93-1.1-.92-1.57C425.73,413.27,416.76,414.24,416.76,414.24Z" transform="translate(-365.65 -374.12)"/><path class="cls-4" d="M400,375.84c-17.32,0-31.36,15.78-31.36,35.24,0,1.09.05,2.17.13,3.23,2.53,1.7,11.06,5.71,32.42,2.59,0,0,10.15-1.49,15.08-1.94,0,0,9.91-.86,15-1,.07-1,.1-1.93.1-2.91C431.35,391.62,417.31,375.84,400,375.84Z" transform="translate(-365.65 -374.12)"/><path class="cls-5" d="M414.37,379.87s-14.53-8.67-32.72,8.06c0,0,4.27-11.6,16.36-13.55C398,374.38,411.19,372.3,414.37,379.87Z" transform="translate(-365.65 -374.12)"/><path class="cls-6" d="M381.66,387.89c18.18-16.72,32.71-8.05,32.71-8.05-.07-.17-.15-.33-.23-.48a16.13,16.13,0,0,0-7.46-3.79C392.19,373.69,383.22,385.63,381.66,387.89Z" transform="translate(-365.65 -374.12)"/><path class="cls-7" d="M397.89,407.82l8.54-.48a19.7,19.7,0,0,1,.86,10.62l-9.89,1Z" transform="translate(-365.65 -374.12)"/><path class="cls-6" d="M397.89,407.82,396.18,417l1.22,1.95S400.09,415.64,397.89,407.82Z" transform="translate(-365.65 -374.12)"/><path class="cls-8" d="M416,406.85a68.14,68.14,0,0,0,8.18-.86,19.46,19.46,0,0,1,1.71,8.91l-6.95,1.47Z" transform="translate(-365.65 -374.12)"/><path class="cls-6" d="M416,406.85l.86,7.93,2.08,1.59S418.76,410,416,406.85Z" transform="translate(-365.65 -374.12)"/><path class="cls-9" d="M384.65,383.54s10.41-13.28,24.73-7.46l.61.61s-12.36-6-25.72,8Z" transform="translate(-365.65 -374.12)"/><path class="cls-10" d="M398.87,412.12a23.65,23.65,0,0,1-.06,3.2l8.72-.75a13.78,13.78,0,0,0-.17-3.12Z" transform="translate(-365.65 -374.12)"/><path class="cls-10" d="M418.13,410.52l7.11-.9a6.89,6.89,0,0,1,.41,2l-7,1.11A14.79,14.79,0,0,0,418.13,410.52Z" transform="translate(-365.65 -374.12)"/><path class="cls-11" d="M372.21,419.36s8.92,2.93,26.35,1.81C398.56,421.17,381.41,419.22,372.21,419.36Z" transform="translate(-365.65 -374.12)"/><path class="cls-12" d="M391.69,397a5,5,0,1,1-5-5A5,5,0,0,1,391.69,397Z" transform="translate(-365.65 -374.12)"/></svg>