<svg id="图层_1" data-name="图层 1" xmlns="http://www.w3.org/2000/svg" viewBox="0 0 404 205.94"><defs><style>.cls-1{fill:#fff;}</style></defs><title>晨会</title><path class="cls-1" d="M212.67,40a20.42,20.42,0,1,0-17.27.32c-14.46,4.89-25.08,21.08-25.08,40.31,0,2.06,1.93,4.56,5.31,6.07,15.69,0,11.69,0,28.9,0s13.75,0,28.91,0c3.53-1.3,5.3-4,5.3-6.06C238.74,61,227.63,44.47,212.67,40Z" transform="translate(-2 -1.23)"/><path class="cls-1" d="M377.6,117.71a24.88,24.88,0,1,0-21,.39c-11.3,3.82-17.42,13.31-20.35,25.81,15.08,10.42,51.23,39.94,55.61,42.37,10.33,5.74,14.38-1.85,14.16-7.4C405.07,155.16,395.84,123.15,377.6,117.71Z" transform="translate(-2 -1.23)"/><path class="cls-1" d="M306.35,42.07a20.32,20.32,0,1,0-28.54,19.47c-10.06,3.4-15.08,12.3-17.19,23.88,11.77,9.19,15.51,12.37,28.68,22.47,2.67-11.18,9.82-16.29,9.82-18.33C286.24,69.63,295,50.07,306.35,42.07Z" transform="translate(-2 -1.23)"/><path class="cls-1" d="M327.82,137.42c3.21-10,8.25-17.5,12.19-19.35-17.53-22.7-2-48.29,8-52a23.1,23.1,0,1,0-32.28,24.19c-10.44,3.53-16.12,12.29-18.85,23.82C308,121.86,322.48,133.44,327.82,137.42Z" transform="translate(-2 -1.23)"/><path class="cls-1" d="M30.4,117.71a24.88,24.88,0,1,1,21,.39c11.3,3.82,17.42,13.31,20.35,25.81-15.08,10.42-51.23,39.94-55.61,42.37C5.84,192,1.79,184.43,2,178.88,2.93,155.16,12.16,123.15,30.4,117.71Z" transform="translate(-2 -1.23)"/><path class="cls-1" d="M101.65,42.07a20.32,20.32,0,1,1,28.54,19.47c10.06,3.4,15.08,12.3,17.19,23.88-11.77,9.19-15.51,12.37-28.68,22.47-2.67-11.18-9.82-16.29-9.82-18.33C121.76,69.63,113,50.07,101.65,42.07Z" transform="translate(-2 -1.23)"/><path class="cls-1" d="M80.18,137.42c-3.21-10-8.25-17.5-12.19-19.35,17.53-22.7,2-48.29-8-52A23.1,23.1,0,1,1,92.24,90.23c10.44,3.53,16.12,12.29,18.85,23.82C100,121.86,85.52,133.44,80.18,137.42Z" transform="translate(-2 -1.23)"/><path class="cls-1" d="M382.69,191.91,260.62,97.27H149.89L24.45,191.84a8.52,8.52,0,0,0,5.14,15.33H377.46A8.52,8.52,0,0,0,382.69,191.91ZM66,186l95.36-78.09h86L336.22,186Z" transform="translate(-2 -1.23)"/><polygon class="cls-1" points="313.04 176.57 87.85 176.57 162.12 116.33 241.74 116.33 313.04 176.57"/></svg>