<svg xmlns="http://www.w3.org/2000/svg" xmlns:xlink="http://www.w3.org/1999/xlink" width="120" height="120" viewBox="0 0 120 120">
  <defs>
    <linearGradient id="linear-gradient" x1="0.5" x2="0.5" y2="1" gradientUnits="objectBoundingBox">
      <stop offset="0" stop-color="#f9b946"/>
      <stop offset="1" stop-color="#ee6505"/>
    </linearGradient>
    <filter id="路径_131" x="78.601" y="73.753" width="25.399" height="15.985" filterUnits="userSpaceOnUse">
      <feOffset dx="-0.5" dy="1" input="SourceAlpha"/>
      <feGaussianBlur stdDeviation="0.5" result="blur"/>
      <feFlood flood-opacity="0.302"/>
      <feComposite operator="in" in2="blur"/>
      <feComposite in="SourceGraphic"/>
    </filter>
    <filter id="路径_155" x="21.102" y="26.48" width="68.329" height="68.329" filterUnits="userSpaceOnUse">
      <feOffset dx="-1" dy="1" input="SourceAlpha"/>
      <feGaussianBlur stdDeviation="1" result="blur-2"/>
      <feFlood flood-opacity="0.302"/>
      <feComposite operator="in" in2="blur-2"/>
      <feComposite in="SourceGraphic"/>
    </filter>
  </defs>
  <g id="video" transform="translate(-651 -1008)">
    <rect id="矩形_285" data-name="矩形 285" width="120" height="120" rx="3" transform="translate(651 1008)" fill="url(#linear-gradient)"/>
    <g id="组_136" data-name="组 136" transform="translate(-2790.898 -3431.52)" opacity="0.83">
      <g transform="matrix(1, 0, 0, 1, 3441.9, 4439.52)" filter="url(#路径_131)">
        <path id="路径_131-2" data-name="路径 131" d="M1173.31,461.451s11.687,0,14.284,1.3,1.3,5.194,1.3,5.194l-6.493,6.493a4.614,4.614,0,0,0-2.6-3.9c-5.922-2.96-12.985,0-12.985,0a43.648,43.648,0,0,0,4.03-4.665A22.749,22.749,0,0,0,1173.31,461.451Z" transform="translate(-1086.22 -387.2)" fill="#ffd7a5"/>
      </g>
      <g transform="matrix(1, 0, 0, 1, 3441.9, 4439.52)" filter="url(#路径_155)">
        <path id="路径_155-2" data-name="路径 155" d="M1149.165,510.25a31.165,31.165,0,1,0,31.165,31.165A31.165,31.165,0,0,0,1149.165,510.25Zm-.649,9.739a6.493,6.493,0,1,1-6.493,6.493A6.493,6.493,0,0,1,1148.516,519.989Zm-22.075,16.881a6.492,6.492,0,1,1,6.492,6.493A6.492,6.492,0,0,1,1126.441,536.87Zm12.985,25.971a6.492,6.492,0,1,1,6.493-6.493A6.493,6.493,0,0,1,1139.426,562.84Zm9.09-18.179a2.6,2.6,0,1,1,2.6-2.6A2.6,2.6,0,0,1,1148.516,544.662ZM1158.9,562.84a6.492,6.492,0,1,1,6.493-6.493A6.492,6.492,0,0,1,1158.9,562.84Zm6.493-19.478a6.492,6.492,0,1,1,6.493-6.493A6.493,6.493,0,0,1,1165.4,543.363Z" transform="translate(-1092.9 -481.77)" fill="#ffd7a5"/>
      </g>
    </g>
  </g>
</svg>
